Coordinates
version=1
nRows=6
nColumns=63
inDegrees=yes

Units are S.I. units (second, meters, Newtons, ...)
If the header above contains a line with 'inDegrees', this indicates whether rotational values are in degrees (yes) or radians (no).

endheader
time	pelvis_tilt	pelvis_list	pelvis_rotation	pelvis_tx	pelvis_ty	pelvis_tz	hip_flexion_r	hip_adduction_r	hip_rotation_r	knee_angle_r	knee_angle_r_beta	ankle_angle_r	subtalar_angle_r	mtp_angle_r	hip_flexion_l	hip_adduction_l	hip_rotation_l	knee_angle_l	knee_angle_l_beta	ankle_angle_l	subtalar_angle_l	mtp_angle_l	L5_S1_Flex_Ext	L5_S1_Lat_Bending	L5_S1_axial_rotation	L4_L5_Flex_Ext	L4_L5_Lat_Bending	L4_L5_axial_rotation	L3_L4_Flex_Ext	L3_L4_Lat_Bending	L3_L4_axial_rotation	L2_L3_Flex_Ext	L2_L3_Lat_Bending	L2_L3_axial_rotation	L1_L2_Flex_Ext	L1_L2_Lat_Bending	L1_L2_axial_rotation	L1_T12_Flex_Ext	L1_T12_Lat_Bending	L1_T12_axial_rotation	Abs_r3	Abs_r2	Abs_r1	Abs_t1	Abs_t2	neck_flexion	neck_bending	neck_rotation	arm_flex_r	arm_add_r	arm_rot_r	elbow_flex_r	pro_sup_r	wrist_flex_r	wrist_dev_r	arm_flex_l	arm_add_l	arm_rot_l	elbow_flex_l	pro_sup_l	wrist_flex_l	wrist_dev_l
      3.45762712	      1.00356322	     -6.57624205	     85.52150116	      0.17914740	      0.66482943	      0.54680471	     15.83460744	     -1.50234298	    -15.90361754	     28.47715216	      0.49702007	     41.20125159	     12.94649969	      0.00000000	      1.53689427	      0.36210938	      8.39909029	      2.14631122	      0.03746020	     32.38452289	     -7.48736041	      0.00000000	     -0.14048954	      0.07509711	     -0.77143637	     -0.26090313	      0.09987916	     -0.81965115	     -0.23081027	      0.18259112	     -0.81965115	     -0.16056550	      0.18259112	     -0.67500683	     -0.13045859	      0.15313803	     -0.62679205	     -0.08027573	      0.11632543	     -0.57857728	     -1.00350276	      0.84951354	     -4.29049768	      0.00000000	      0.00000000	     22.36144631	      8.23876647	      5.65165493	      7.63117508	    -19.14533942	     68.39771681	     20.23131837	     87.07199599	    -30.32988364	    -22.46426218	      3.20742906	    -17.66838540	     58.27223639	     21.13848026	     70.31612548	    -11.52344913	    -11.99258333
      3.47457627	      0.99119489	     -6.58072828	     85.24672081	      0.17944164	      0.66461983	      0.54749867	     15.84495623	     -1.38196387	    -15.54384788	     28.51652349	      0.49770723	     40.97627031	     12.65958478	      0.00000000	      1.45121344	      0.35043848	      8.62582065	      1.98571619	      0.03465729	     32.04476964	     -7.81279358	      0.00000000	     -0.14670501	      0.07832560	     -0.70945871	     -0.27244588	      0.10417304	     -0.75379988	     -0.24102167	      0.19044086	     -0.75379988	     -0.16766916	      0.19044086	     -0.62077637	     -0.13623028	      0.15972156	     -0.57643520	     -0.08382724	      0.12132635	     -0.53209403	     -1.04789924	      0.88603481	     -3.94579651	      0.00000000	      0.00000000	     22.36488288	      8.00990887	      5.63744411	      8.61092690	    -18.37725867	     71.67919853	     18.57477203	     87.59298696	    -28.37309200	    -21.70848167	      3.74154025	    -17.60899895	     58.71599349	     21.11214114	     70.36151992	    -11.57131761	     -9.69557206
      3.49152542	      0.53666707	     -6.72782738	     85.24827528	      0.18100506	      0.66486989	      0.54798461	     16.00626401	     -1.56029193	    -14.82971653	     28.50544455	      0.49751386	     40.67826808	     11.66831282	      0.00000000	      1.56685120	      0.72314982	     10.50684651	      1.82345333	      0.03182526	     30.91808913	    -10.20598198	      0.00000000	     -0.12913880	     -0.00187057	     -0.69254703	     -0.23982367	     -0.00248786	     -0.73583122	     -0.21216214	     -0.00454811	     -0.73583122	     -0.14759274	     -0.00454811	     -0.60597866	     -0.11991829	     -0.00381447	     -0.56269447	     -0.07378991	     -0.00289752	     -0.51941028	     -0.92242555	     -0.02116028	     -3.85173884	      0.00000000	      0.00000000	     22.58465679	      8.56537384	      5.21700453	     11.01124600	    -11.25697806	    152.95501128	      0.67182602	     22.13422937	    -23.49149162	    -23.16841325	      3.76490099	    -18.02094110	     56.79394292	     21.44136784	     72.58448389	    -12.15405296	     -7.59886992
      3.50847458	      0.72558244	     -6.78711082	     85.06312706	      0.18036965	      0.66424062	      0.54850065	     16.04487832	     -1.28575663	    -14.37689854	     28.48965796	      0.49723833	     40.56844282	     11.39311625	      0.00000000	      1.56771862	      0.54300349	     10.67056824	      1.69534957	      0.02958943	     30.88342883	    -10.37972387	      0.00000000	     -0.13692206	      0.04440925	     -0.64551333	     -0.25427795	      0.05906430	     -0.68585791	     -0.22494924	      0.10797665	     -0.68585791	     -0.15648822	      0.10797665	     -0.56482416	     -0.12714582	      0.09055934	     -0.52447958	     -0.07823726	      0.06878993	     -0.48413500	     -0.97802055	      0.50236631	     -3.59015147	      0.00000000	      0.00000000	     22.80394167	      8.11298585	      5.67439237	     11.56492855	    -11.30595562	    152.37667756	      0.62733229	     22.12242523	    -19.28102159	    -22.01259576	      4.26950592	    -17.60702129	     57.42439068	     21.24762487	     72.85894982	    -13.17217597	     -5.79047865
      3.52542373	      0.85021757	     -6.95111125	     84.98624587	      0.17932530	      0.66324540	      0.54895024	     16.31067131	     -1.16753817	    -14.11458043	     28.65915534	      0.50019662	     40.91724877	     11.40835384	      0.00000000	      1.73247683	      0.43751422	     10.89532517	      1.59160037	      0.02777867	     31.17413367	    -10.36214033	      0.00000000	     -0.13597527	      0.09320231	     -0.59956715	     -0.25251967	      0.12395907	     -0.63704009	     -0.22339377	      0.22661209	     -0.63704009	     -0.15540613	      0.22661209	     -0.52462125	     -0.12626663	      0.19005814	     -0.48714831	     -0.07769627	      0.14437037	     -0.44967536	     -0.97125773	      1.05432313	     -3.33461260	      0.00000000	      0.00000000	     23.54351499	      7.50650270	      6.41674403	     11.90346999	    -11.40526569	    151.55125104	      0.63216012	     21.57089719	    -17.63113630	    -19.97439817	      4.73497977	    -17.00339652	     57.64326156	     20.73994023	     73.04115156	    -13.73106407	     -4.94308805
      3.54237288	      0.93136053	     -6.92689064	     84.84635787	      0.17869469	      0.66291212	      0.54942808	     16.28459608	     -0.99296042	    -13.59988783	     28.44392430	      0.49644013	     41.01293194	     11.22796387	      0.00000000	      1.73888174	      0.39719025	     10.77926501	      1.52514753	      0.02661885	     31.36207965	    -10.47170898	      0.00000000	     -0.15205640	      0.12579622	     -0.53182406	     -0.28238395	      0.16730897	     -0.56506306	     -0.24981346	      0.30586093	     -0.56506306	     -0.17378526	      0.30586093	     -0.46534605	     -0.14119958	      0.25652365	     -0.43210705	     -0.08688503	      0.19485834	     -0.39886804	     -1.08612368	      1.42303198	     -2.95784585	      0.00000000	      0.00000000	     23.50521116	      7.24521962	      6.76364070	     12.37644344	    -11.31151882	    149.36674205	      0.61055855	     19.36115197	    -11.70688086	    -16.28485557	      5.40705686	    -16.80785654	     59.23102227	     20.87770019	     74.34447255	    -15.44933127	     -3.08413962
